<svg width="24" height="24" viewBox="0 0 24 24" fill="none" xmlns="http://www.w3.org/2000/svg">
<path fill-rule="evenodd" clip-rule="evenodd" d="M7.53223 2H21.0625C21.5803 2 22 2.41969 22 2.9375V21.0625C22 21.5803 21.5803 22 21.0625 22H2.9375C2.41969 22 2 21.5803 2 21.0625V7.53223V2.49805C2 2.22296 2.22296 2 2.49805 2H7.53223ZM3.25 12.625V20.75H20.75V3.25H12.625V12.127C12.625 12.402 12.402 12.625 12.127 12.625H3.25ZM3.25 11.375V3.25H11.375V11.375H3.25ZM14.8125 16.0625V18.875C14.8125 19.1875 14.9197 19.5 15.4375 19.5C15.9553 19.5 16.0625 19.1875 16.0625 18.875V16.0625H18.875C19.1875 16.0625 19.5 15.9553 19.5 15.4375C19.5 14.9197 19.1875 14.8125 18.875 14.8125H16.0625V12C16.0625 11.6875 15.9553 11.375 15.4375 11.375C14.9197 11.375 14.8125 11.6875 14.8125 12V14.8125H12C11.6875 14.8125 11.375 14.9197 11.375 15.4375C11.375 15.9553 11.6875 16.0625 12 16.0625H14.8125Z" fill="black"/>
</svg>
