<svg width="24" height="24" viewBox="0 0 24 24" fill="none" xmlns="http://www.w3.org/2000/svg">
<path d="M13.9381 4.42392C13.7245 4.21036 13.7245 3.86866 13.9381 3.67645L15.4544 2.16017C15.6679 1.94661 16.0096 1.94661 16.2018 2.16017C16.4154 2.37373 16.4154 2.71543 16.2018 2.90763L15.6038 3.50561H18.0384C20.2168 3.50561 21.9893 5.27816 21.9893 7.45649V9.22904C21.9893 9.52803 21.7544 9.76295 21.4554 9.76295C21.1564 9.76295 20.9215 9.52803 20.9215 9.22904V7.43513C20.9215 5.85478 19.6402 4.55206 18.0384 4.55206H15.6038L16.2018 5.15003C16.4154 5.36359 16.4154 5.70529 16.2018 5.89749C16.095 6.00427 15.9669 6.04698 15.8174 6.04698C15.6679 6.04698 15.5398 6.00427 15.433 5.89749L13.9381 4.42392ZM12.1442 21.4661V12.7528C12.1442 12.4538 12.3791 12.2189 12.6781 12.2189H21.3914C21.6903 12.2189 21.9253 12.4538 21.9253 12.7528V21.4661C21.9253 21.7651 21.6903 22 21.3914 22H12.6781C12.4004 22 12.1442 21.7651 12.1442 21.4661ZM13.212 20.9322H20.8574V13.2867H13.212V20.9322ZM5.95088 20.5051H8.38548L7.78751 21.103C7.57395 21.3166 7.57395 21.6583 7.78751 21.8505C7.89429 21.9573 8.02242 22 8.17192 22C8.30005 22 8.44955 21.9573 8.55633 21.8505L10.0726 20.3342C10.1794 20.2274 10.2221 20.0993 10.2221 19.9498C10.2221 19.8003 10.158 19.6722 10.0726 19.5654L8.55633 18.0491C8.34277 17.8356 8.00107 17.8356 7.80886 18.0491C7.5953 18.2627 7.5953 18.6044 7.80886 18.7966L8.40683 19.3946H5.95088C4.37053 19.3946 3.06781 18.1132 3.06781 16.5115V14.7816C3.06781 14.4826 2.83289 14.2477 2.5339 14.2477C2.23492 14.2477 2 14.4826 2 14.7816V16.5755C2 18.7325 3.77256 20.5051 5.95088 20.5051ZM2.04271 11.2579V2.54458C2.04271 2.2456 2.27763 2.01068 2.57662 2.01068H11.2899C11.5889 2.01068 11.8238 2.2456 11.8238 2.54458V11.2579C11.8238 11.5569 11.5889 11.7918 11.2899 11.7918H2.57662C2.27763 11.7918 2.04271 11.5569 2.04271 11.2579ZM3.11052 10.724H10.756V3.07848H3.11052V10.724Z" fill="black"/>
</svg>
